<?xml version="1.0" standalone="no"?>
<!DOCTYPE svg PUBLIC "-//W3C//DTD SVG 20010904//EN"
 "http://www.w3.org/TR/2001/REC-SVG-20010904/DTD/svg10.dtd">
<svg version="1.0" xmlns="http://www.w3.org/2000/svg"
 width="1024.000000pt" height="1024.000000pt" viewBox="0 0 1024.000000 1024.000000"
 preserveAspectRatio="xMidYMid meet">
<metadata>
Created by potrace 1.14, written by Peter Selinger 2001-2017
</metadata>
<g transform="translate(0.000000,1024.000000) scale(0.100000,-0.100000)"
fill="#000000" stroke="none">
<path d="M6842 9627 c-11 -12 -40 -67 -62 -122 -76 -183 -152 -345 -162 -345
-5 0 -26 9 -47 19 -45 24 -187 61 -230 61 -17 0 -56 12 -88 26 -73 33 -186 64
-236 64 -69 0 -89 -37 -148 -273 l-22 -87 -47 44 c-26 24 -65 53 -87 65 -78
39 -239 99 -353 131 -63 18 -183 52 -266 76 -164 48 -200 52 -244 29 -34 -17
-52 -63 -75 -185 -23 -121 -19 -116 -67 -77 -95 76 -239 139 -423 182 -55 13
-132 35 -170 48 -137 47 -262 70 -350 64 -92 -6 -203 -42 -280 -92 -71 -45
-220 -207 -285 -308 -30 -48 -57 -86 -60 -87 -3 0 -23 22 -44 50 -118 155
-352 291 -576 335 -47 9 -119 29 -161 45 -136 51 -225 63 -399 57 -160 -6
-288 -29 -430 -77 -88 -29 -230 -96 -230 -108 0 -6 -31 -355 -70 -776 -38
-422 -70 -789 -70 -816 0 -66 12 -92 69 -153 l49 -52 4 -80 c2 -51 11 -94 23
-119 44 -92 206 -226 370 -309 183 -92 305 -90 570 8 294 109 555 287 739 505
44 52 83 96 87 98 4 2 15 -23 24 -55 45 -159 93 -251 179 -341 170 -178 412
-262 751 -262 132 0 199 15 314 71 90 44 194 134 271 234 23 30 45 55 49 55 4
0 13 -27 19 -60 26 -123 158 -219 381 -274 168 -42 241 -31 306 46 42 49 51
79 80 254 14 88 30 174 34 190 l8 29 11 -25 c6 -14 31 -74 56 -134 53 -127 82
-173 145 -225 57 -47 84 -61 186 -94 239 -79 369 -74 460 17 47 47 54 68 121
356 93 399 251 1018 265 1036 7 8 25 8 62 2 28 -6 106 -8 172 -6 112 3 125 5
186 35 63 31 133 95 199 183 l25 33 56 -54 c30 -30 79 -66 107 -79 29 -14 52
-28 52 -31 0 -4 -13 -85 -30 -180 -36 -210 -75 -499 -90 -666 -13 -149 -4
-180 69 -220 l46 -26 0 -96 c0 -114 15 -152 87 -222 55 -54 145 -95 292 -134
155 -40 230 -33 304 30 52 44 67 85 116 328 44 216 177 786 269 1152 l43 170
35 6 c19 4 105 15 192 24 86 9 176 23 200 31 59 21 104 68 124 131 14 45 15
61 4 121 -24 132 -114 299 -206 380 -63 55 -117 72 -237 72 l-98 0 -31 35
c-17 19 -48 40 -67 46 -57 19 -390 0 -852 -47 l-166 -17 -75 75 c-77 79 -203
168 -266 189 -21 7 -66 10 -111 7 -73 -5 -78 -4 -121 27 -99 70 -143 80 -179
42z m-4499 -1174 c14 -22 -83 -316 -99 -301 -5 5 62 283 72 300 6 10 21 10 27
1z"/>
<path d="M4071 6297 c46 -88 73 -181 59 -207 -5 -10 -20 -20 -32 -23 -23 -5
-257 -31 -413 -45 l-79 -7 -77 -310 c-113 -454 -205 -847 -263 -1125 -49 -232
-53 -245 -78 -257 -29 -14 -94 -3 -213 36 -33 11 -61 19 -62 17 -1 -1 -5 -34
-9 -73 -18 -196 113 -316 424 -388 163 -38 278 5 322 121 6 15 31 123 55 239
69 333 304 1317 317 1331 3 2 76 11 164 20 87 9 164 22 170 28 5 6 50 95 98
198 l89 186 -39 79 c-27 55 -59 99 -109 149 -87 88 -128 104 -265 104 l-97 0
38 -73z"/>
<path d="M7234 6323 c164 -170 277 -414 263 -568 -11 -112 -53 -195 -161 -315
-180 -199 -574 -418 -945 -525 l-115 -33 -28 -128 c-15 -71 -37 -189 -49 -262
-24 -147 -41 -182 -87 -182 -45 0 -190 39 -247 66 -103 48 -121 94 -91 226 25
108 45 288 81 733 53 655 68 769 111 816 l24 25 -33 31 c-52 50 -52 50 -382
140 -18 5 -18 3 4 -20 34 -38 38 -82 25 -282 -20 -294 -34 -822 -34 -1267 0
-496 10 -458 -122 -458 -46 0 -111 6 -145 14 -35 7 -63 10 -63 7 0 -37 24
-186 36 -222 45 -141 190 -209 442 -209 152 0 182 9 240 71 l34 36 42 -23 c97
-54 249 -94 356 -94 81 0 106 8 153 49 45 40 72 98 87 191 14 89 58 318 66
342 3 11 39 28 102 49 233 76 483 196 661 314 242 161 394 332 458 516 23 66
25 84 21 193 -5 131 -19 188 -83 321 -43 91 -153 244 -229 321 -91 91 -264
164 -392 164 l-37 0 37 -37z"/>
<path d="M2520 5988 c0 -40 79 -208 139 -296 52 -77 150 -168 207 -193 25 -11
47 -19 49 -17 6 5 94 452 91 456 -2 1 -59 -7 -127 -19 -176 -31 -186 -32 -216
-24 -14 3 -53 33 -85 67 l-58 60 0 -34z"/>
<path d="M4938 5733 c-75 -142 -173 -332 -218 -421 -80 -162 -81 -164 -53
-158 27 6 213 27 353 41 l65 6 -3 367 c-1 202 -4 379 -5 395 -1 21 -34 -32
-139 -230z"/>
<path d="M6765 5969 c-57 -8 -208 -52 -231 -67 -16 -11 -161 -558 -151 -569 7
-6 148 48 222 85 239 119 425 319 425 454 0 55 -14 73 -69 93 -47 16 -101 17
-196 4z"/>
<path d="M4940 4799 c-208 -31 -381 -60 -451 -75 l-67 -15 -58 -127 c-33 -70
-72 -154 -89 -187 l-30 -60 -55 1 c-32 1 -76 11 -104 23 -27 12 -52 19 -55 15
-3 -3 -8 -40 -9 -83 -7 -136 46 -215 196 -294 92 -49 211 -87 269 -87 112 1
177 63 264 254 32 72 64 135 71 142 14 12 130 36 271 55 48 7 86 15 84 18 -27
49 -38 99 -51 241 -9 90 -16 172 -16 182 0 22 -5 22 -170 -3z"/>
<path d="M8252 3702 c-34 -5 -57 -51 -87 -172 l-27 -108 -56 26 c-47 22 -75
27 -162 30 -103 4 -106 5 -138 37 -45 45 -107 59 -219 50 -275 -21 -547 -63
-834 -131 -81 -19 -149 -34 -152 -34 -3 0 -8 -18 -12 -40 l-7 -39 -66 33
c-110 55 -241 103 -342 125 -52 11 -133 33 -180 50 -100 35 -232 61 -304 61
-160 -1 -322 -86 -461 -245 l-56 -64 -47 29 c-99 61 -318 140 -386 140 -15 0
-60 13 -99 28 -187 74 -256 77 -292 9 -14 -26 -25 -35 -35 -31 -8 4 -51 9 -95
11 -68 4 -91 11 -156 43 -86 44 -146 58 -178 40 -15 -7 -62 -91 -138 -246
l-115 -234 -29 24 c-37 31 -216 101 -310 121 -41 9 -130 34 -199 57 -148 48
-228 58 -265 34 -13 -9 -44 -50 -67 -91 -24 -41 -46 -75 -49 -75 -4 0 -10 11
-13 25 -3 13 -31 51 -62 84 -73 79 -158 121 -334 166 -74 18 -155 41 -180 50
-77 28 -237 65 -277 65 -22 0 -44 -5 -50 -11 -9 -9 -20 -5 -43 14 -17 15 -47
29 -67 33 -106 20 -924 -51 -1290 -112 -151 -25 -215 -43 -229 -65 -4 -7 20
-66 54 -133 33 -67 63 -139 66 -160 7 -49 70 -183 130 -276 58 -89 148 -179
211 -209 28 -13 51 -25 53 -26 2 -2 -13 -99 -32 -216 -47 -281 -85 -587 -88
-696 -3 -102 9 -127 78 -164 l40 -22 -4 -84 c-4 -78 -3 -88 28 -149 54 -109
154 -169 374 -224 117 -29 197 -25 254 13 80 52 89 73 142 332 50 242 187 826
264 1130 l43 170 7 -95 c3 -52 11 -167 16 -255 21 -320 63 -672 91 -762 6 -19
24 -41 45 -53 37 -23 37 -23 58 -151 33 -195 100 -255 365 -325 64 -17 133
-27 206 -31 109 -4 111 -4 163 27 67 39 97 82 173 245 33 71 62 131 65 134 9
9 22 -19 28 -62 20 -122 116 -229 243 -271 220 -72 379 -92 473 -61 87 29 134
85 204 245 33 74 77 172 98 217 l37 82 56 -37 56 -37 -7 -66 c-17 -177 81
-286 326 -364 87 -27 226 -43 274 -31 38 10 106 75 127 122 10 22 32 105 49
184 17 79 33 146 35 149 6 6 4 9 50 -84 48 -96 147 -201 245 -258 82 -47 286
-114 392 -128 45 -6 145 -9 222 -7 240 9 361 62 533 236 l102 102 88 -88 c147
-149 293 -231 407 -232 98 0 810 140 871 171 l40 21 15 -23 c66 -102 126 -151
228 -189 49 -18 74 -21 172 -18 100 3 123 7 173 30 75 35 157 114 198 191 44
83 51 182 20 275 -21 60 -21 64 -4 87 25 33 29 31 37 -16 5 -31 18 -52 56 -89
46 -45 50 -52 50 -97 0 -151 88 -285 229 -352 52 -24 66 -26 191 -26 129 0
138 1 195 29 75 37 164 126 199 199 22 47 26 70 26 145 0 54 -6 106 -16 135
-15 45 -15 47 10 89 14 24 46 122 71 218 72 270 145 511 280 920 68 206 127
394 130 417 15 100 -37 215 -130 285 -105 80 -317 169 -455 193 -41 7 -119 29
-174 49 -54 20 -119 37 -143 38 -65 3 -82 -22 -122 -173 -18 -68 -34 -125 -36
-127 -2 -2 -26 13 -53 33 -104 75 -323 164 -442 180 -30 4 -93 22 -140 40 -89
35 -169 53 -208 47z m-306 -1149 c-16 -87 -31 -159 -32 -161 -1 -2 -21 17 -43
41 -60 65 -124 90 -243 95 -54 2 -98 7 -98 11 0 17 33 117 41 125 9 10 272 43
355 45 l51 1 -31 -157z m-1929 -26 c38 -168 160 -296 331 -347 50 -15 49 -12
24 -175 -12 -73 -22 -109 -30 -108 -6 2 -50 6 -98 9 -75 6 -89 10 -113 34 -53
54 -236 71 -326 31 -27 -12 -50 -19 -53 -16 -9 9 30 178 65 280 40 115 161
357 176 352 6 -2 17 -29 24 -60z m2855 -517 c11 -10 36 -26 54 -35 33 -15 34
-18 34 -76 0 -64 0 -63 -61 -73 -20 -4 -56 -20 -80 -36 -24 -16 -45 -28 -46
-26 -1 1 9 45 23 97 13 52 29 111 35 132 5 20 12 37 15 37 3 0 14 -9 26 -20z
m-886 -166 c-3 -8 -17 -14 -31 -14 -37 0 -86 -23 -127 -59 -32 -27 -37 -29
-49 -15 -7 8 -25 22 -41 30 -39 20 -35 30 15 38 97 15 210 67 225 104 8 20 16
-63 8 -84z"/>
</g>
</svg>
