<svg version="1.2" xmlns="http://www.w3.org/2000/svg" viewBox="0 0 1024 1024" width="1024" height="1024"><style>.a{fill:#8610c9}.b{fill:#00b4ff}</style><path class="a" d="m130.1 106.7l-14 153.4q-0.8 6-0.3 9.9 0.5 3.9 1.9 6.5 1.7 2.7 3.9 4.8 2.2 2 4.6 4.1 6.5 4.9 11.6 8.3 5.1 3.1 11.8 6.5 13.5 6.5 25.9 2.1 24.1-6.7 43.2-18.1 19.1-11.3 32.8-25.6 14-14.2 22.7-30.4 8.7-16.2 12.1-32.4 3.6-16.4 1.9-31.8-1.7-15.5-8.4-28.5-8-16.4-19.6-26.3-11.6-9.9-25.3-14.8-13.6-5.1-28.3-5.5-14.5-0.8-28.5 1.7-14 2.1-26.5 6.7-12.4 4.4-21.5 9.4zm32.3 157.7q6.1-31.4 12.6-62 6.5-30.9 15-62.6 15.6-5 26.5-0.9 10.9 4.1 15.2 12.3 4.4 8.2 3.4 22.9-0.7 10.6-5.1 23-4.3 12.3-13 24.6-8.7 12.3-22.2 23.7-13.5 11.1-32.4 19zm271.5-157.2q-8.3-6.5-20.8-11.1-12.3-4.6-26.1-6.8-10.6-1.6-22.4 1.7-11.6 3.4-20.1 9.9-12.6 10.9-22.2 24.7-9.4 13.5-15.9 28.7-6.6 15.2-10 31.4-3.3 15.9-3.6 31.4-0.2 15.5 2.7 29.5 2.9 14 8.7 25.1 3.6 6.7 9.9 12.1 6.3 5.3 12.8 8.6 7.9 4.2 17.6 6.3 9.7 2 18.8 2.9 13.8 1.5 24.4-0.9 10.7-2.7 20.3-10.2 14.3-12.5 23.9-30.7 9.9-18.1 15.5-38.4 5.8-20.5 7.2-41 1.5-20.8-1.2-38.4-1.9-10.6-6.3-18.8-4.1-8.5-13.2-16zm-38.9 24.2q4.8 1.4 7 10.1 2.4 8.5 2.4 20.5 0 11.9-1.9 25.6-2 13.6-5.1 24.9-3.6 13.8-8.7 25.6-4.8 11.6-10.4 19.6-5.5 7.9-11.1 11.8-5.5 3.9-10.6 2.2-5.6-1.7-8.5-9.2-2.9-7.5-3.4-17.9-0.4-10.6 1-22.7 1.5-12.3 4.8-23.6 3.4-11.6 8.7-23.9 5.6-12.6 11.9-22.7 6.3-10.2 12.5-16 6.3-6 11.4-4.3zm170.5 87.6q-2.7-12.3-5.3-25.6-2.7-13.5-5.1-26-2.4-12.8-4.4-23.7-1.9-10.9-3.1-17.9-1.4-9.2-4.6-13.8-3.1-4.8-10.6-7.9-9.2-4.4-17.6-7-8.5-2.7-17.4-5.3-7.5-2-11.9 0-4.3 1.7-6 8.9-2.7 12.6-5.6 28.7-2.6 16.2-5.3 33.6-2.6 17.4-5 35-2.2 17.4-4.1 32.9-1.7 15.2-2.9 27.3-1 12-1.5 18.5-0.5 6.3 1.2 9.9 2 3.4 7.3 6.1 5.5 3.4 11.3 5.1 6.1 1.4 11.8 2.9 6.3 1.6 8.5 0.7 2.2-1.2 3.1-5.3 1.2-8.7 3.2-20.3 2.2-11.9 4.6-25.4 2.6-13.7 5.3-28.7 2.9-15 5.5-30 3.2 12.6 6.8 25.2 3.6 12.3 7.2 23.9 3.7 11.3 7 21.2 3.7 9.9 7 17.4 4.4 10.4 15 14.5 11.6 4.1 22.7 6.3 13.1 2.9 14.5-6.3 3.9-16.9 9.2-39.1 5.5-22.5 11.3-45.9 6.1-23.4 12.1-46.1 6-22.7 11.6-40.6 1.9-6.3 1-10.6-0.8-4.6-7.8-9-4.1-2.6-7.2-4.3-3.1-1.7-6-2.9-2.7-1.2-5.6-1.9-2.9-0.8-6.5-1.7-7.7-2-11.8-0.3-3.9 1.7-5.8 8.7-7 25.9-14.3 56.5-7 30.7-11.8 62.3zm122.2-71.9q3.4-3.9 7.5-9.9 4.1-6.1 8.2-13.1 4.1-7 7.5-14 3.6-7.2 5.7-13.5 1-4.1 1.5-6.5 0.7-2.7 0.7-3.9 0-3.9-4.3-10.1-3.4-3.7-7.5-7-4.1-3.7-9.7-7-11.6-8.3-16.2 3.3-3.3 8.5-7.9 19.1-4.6 10.6-9.7 21.5-4.8 10.6-9.4 20.5-4.6 9.9-7.7 16.5-4.4 9.1 7.2 11.3 4.8 0.5 9.2 1 4.6 0.5 9.2-0.3 9.1-0.4 15.7-7.9zm184.5-18.6q7.5-0.5 8.7-2.4 1.4-2.2 0-7.8-1.7-6.3-4.9-12.8-3.1-6.5-7.9-12-2.4-3.2-5.8-4.4-3.2-1.4-10.7-1.4-14.2 0.4-32.3 1.9-17.9 1.2-36.7 3.1-18.6 2-36.7 4.4-17.9 2.4-32.1 5.3-4.6 1.2-6.1 3.1-1.4 1.7 1.5 7.3 2.6 5.3 6.7 13 4.4 7.7 9.4 12.8 4.9 5.1 8.7 6.3 3.9 1 9.9-0.5 4.4-1.2 10.9-1.9 6.5-1 13.5-2.2-3.6 16.4-7.2 35.7-3.6 19.1-6.8 38-2.9 18.8-5 35.7-2.2 16.9-2.9 28.5-1 4.6 0.2 8 1.2 3.1 3.9 5.5 2.9 2.4 7 4.1 4.1 1.7 9.1 3.2 5.1 1.4 9.2 2.6 4.1 1.2 7.3 1.5 3.1 0 4.8-1 1.9-1.2 2.4-4.6 3.4-17.6 7.7-37.9 4.6-20.3 9.7-41.5 5.1-21.5 10.4-43.3 5.5-21.7 10.6-42 11.8-1.2 22.9-2.2 11.2-1.2 20.6-2.1zm-693 579q7.5-0.5 8.7-2.4 1.4-2.2 0-7.8-1.7-6.3-4.8-12.8-3.2-6.5-8-12-2.4-3.2-5.8-4.4-3.1-1.4-10.6-1.4-14.3 0.4-32.4 1.9-17.9 1.2-36.7 3.1-18.6 2-36.7 4.4-17.9 2.4-32.1 5.3-4.6 1.2-6.1 3.1-1.4 1.7 1.5 7.3 2.7 5.3 6.8 13 4.3 7.7 9.4 12.8 4.8 5.1 8.7 6.3 3.8 1 9.9-0.5 4.3-1.2 10.8-1.9 6.6-1 13.6-2.2-3.7 16.4-7.3 35.7-3.6 19.1-6.7 38-2.9 18.8-5.1 35.7-2.2 16.9-2.9 28.5-1 4.6 0.2 8 1.2 3.1 3.9 5.5 2.9 2.4 7 4.1 4.1 1.7 9.2 3.2 5 1.4 9.1 2.6 4.2 1.2 7.3 1.5 3.1 0 4.8-1 2-1.2 2.4-4.6 3.4-17.6 7.8-37.9 4.6-20.3 9.6-41.5 5.1-21.5 10.4-43.3 5.6-21.7 10.6-42 11.9-1.2 23-2.2 11.1-1.2 20.5-2.1zm44.9 106.2q0-14.5 0.3-30.4 0.4-16.2 0.9-30.9 0.8-15 1.2-27.1 0.8-12 1-18.3 0.2-3.2 0-6.8-0.2-3.8-1.4-7.2-1-3.6-3.2-6.8-2.2-3.1-5.8-5.3-6.3-3.6-13.5-5.5-7.2-2.2-16.2-4.2-7.7-1.6-10.4 0.5-2.6 2.2-2.9 9.9 0 13.8 0.3 30 0.2 15.9 0.9 32.8 0.8 16.7 1.7 33.6 1 16.9 2.2 32.3 1.2 14.8 2.7 27.8 1.7 12.8 3.6 22.7 0.7 6.8 3.1 10.2 2.7 3.1 8.5 5 6.3 2 13 3.9 7 1.7 14.5 2.9 5.6 0.7 8.7 0 3.4-1 6.3-5.8 2.6-6 7-15.2 4.3-9.4 9.4-20.3 5.3-10.9 11.1-22.2 5.8-11.6 11.4-22.2 0 8.4 0.7 17.4 0.9 8.9 1.9 17.6 1 8.4 1.9 15.7 1.3 7.2 2 12.3 0.9 5.1 3.8 9.4 2.9 4.1 9.7 6.5 3.4 0.8 6 1.7 2.9 0.7 5.6 1.5 2.9 0.7 6 1.7 3.2 0.7 7.5 1.4 7.7 1.2 11.9 0 4.1-1.2 6.5-5.8 4.3-9.9 10.4-23.2 6-13.2 12.8-28.2 7-15.2 14.4-31.2 7.8-16.2 15.3-31.6 7.4-15.5 14.7-29.7 7.2-14.3 13.3-25.4 2.9-6.2 3.1-12.3 0.3-6-5.3-11.3-5.1-4.1-10.6-7.3-5.3-3.4-10.9-6-7.7-3.2-11.3-2.2-3.7 0.7-7.3 8.2-2.9 5.6-7.2 14.5-4.1 8.7-9.5 19.8-5 11.1-11.1 23.9-5.8 12.6-11.8 25.9-6 13.2-12.1 26.5-5.8 13.1-10.8 24.9 0.9-14.3 1.9-29.2 1.2-15 2.2-28.3 0.9-13.3 1.7-23.2 0.7-9.9 0.7-14 0-3.6-0.3-6.2 0-2.7-0.9-4.6-0.7-2-2.7-3.4-1.7-1.5-5.3-2.9-6.5-2.7-11.3-4.4-4.6-1.7-11.6-3.1-7-1.7-10.7-0.2-3.3 1.4-6.2 6.7-3.9 6.3-10.2 19.6-6 13.3-13.3 29.4-7 16.2-14.5 33.6-7.2 17.4-13.5 32.1zm255-128.4q-6.5-4.4-15.2-8.3-8.7-3.8-16.2-5.8-7.4-2.1-11.3-0.4-3.6 1.4-5.8 8.4-2.7 11.4-5.8 26.6-3.1 15-6.3 31.9-2.9 16.9-5.8 34.5-2.9 17.6-5.3 33.6-2.2 15.9-3.8 29.4-1.5 13.3-2 21.8-0.7 6.2 1 9.9 1.9 3.3 7.5 6 5 2.7 10.6 4.3 5.8 1.7 12.1 3.4 6.3 1.5 8.2 0.3 2.2-1.2 3.4-5.3 2.1-10.9 5-24.7 3.2-14 6.8-29.4 3.6-15.7 7.5-31.9 3.8-16.4 7.7-31.9 4.1-15.7 8-29.7 4.1-14 7.5-24.9 1.7-6.5 0.2-9.9-1.2-3.4-8-7.9zm127.3 141q-22.9-6.5-37.2 8-19.8 20.2-29.4 17.1-5.1-1.4-7.8-8.2-2.6-6.8-3.1-16.4-0.5-9.9 1-21.8 1.6-12 4.8-24.1 3.4-11.6 9.2-25.1 6-13.6 12.8-24.7 6.7-11.3 13.2-18.3 6.6-7 11.4-5.6 4.8 2 5.8 8.2 1 6.3 0.7 14 0 4.4 0.7 9.5 1 6 3.2 10.6 2.1 4.6 5.8 8.2 3.6 3.4 9.1 6 5.6 2.5 13.3 3.9 4.1 0.7 6.6 0.5 2.4-0.3 3.6-1.2 1.4-1 2.1-2.7 0.8-1.7 1.5-3.6 1.4-4.3 2.7-9.7 1.2-5.5 1.9-11.3 0.7-6 1-12.1 0.4-6 0.2-11.6-0.2-4.8-1-8.9-0.7-4.4-2.6-8.2-1.7-3.9-4.9-7.5-2.9-3.9-7.4-7.7-4.9-3.2-10.9-6.1-6.1-3.1-12.8-5.5-6.8-2.7-14-4.4-7.3-1.9-14-2.6-9.2-0.8-19.6 1.9-10.4 2.7-20.5 11.4-12.6 10.8-22.5 25.3-9.6 14.3-16.6 30.4-7 16.2-11.1 33.4-3.9 16.9-4.6 33-0.8 16 1.7 30.2 2.6 14 8.9 24.4 3.6 6.8 10.1 11.9 6.6 5 13.1 7.7 7.2 2.4 16.4 5.3 9.2 2.7 20.5 3.4 5.3 0.5 10.9 0 5.8-0.5 10.9-1.7 5.3-1.2 9.9-3.2 4.8-1.9 8.2-4.1 6.7-4.8 13.5-12 6.8-7.3 11.1-16 4.1-7.5 3.6-12.5-0.2-5.1-9.4-7.5zm50.5-142l-23 160.6q-0.4 6.5 1.7 11.1 2.4 4.6 6.5 8 5.1 4.3 8.7 7.2 3.9 2.7 8 5.3 3.6 2.4 8.5 3.9 5 1.2 14.7-1.2 14.5-2.7 30.4-5.8 16-3.2 31.4-6.1 6.5-1.2 7.7-2.9 1.3-1.9 0-6.7-1.9-4.4-3.6-8.5-1.4-4.3-4.3-9.1-2.7-4.4-6.5-5.8-3.7-1.5-10.4-1-12.1 0.7-22.5 1.9-10.1 1.2-21.5 3.2 2-6.8 3.6-13.6 1.7-7 3.7-14.7 14-2.9 28.9-5.3 15.3-2.4 29.7-5.1 6.8-1.4 8.3-3.4 1.6-1.9-0.3-7.4-1.2-4.9-2.9-9.5-1.4-4.8-4.3-9.6-2.7-4.9-6.5-6.3-3.9-1.5-10.7-1.2-8.2 0.2-15.4 0.7-7.3 0.5-14.5 1.5 3.8-12.8 7-24.4 3.1-11.9 6.7-22.7 17.2-2.4 32.6-4.1 15.5-1.7 30-3.4 7-1 8.9-3.2 2-2.1 1-8.4-1.2-5.6-2.4-10.1-1.2-4.9-4.4-10.7-3.8-10.8-17.6-10.6-14.5 0.5-29.2 2.4-14.5 1.7-28.5 4.1-13.8 2.4-26.6 5.3-12.5 2.9-22.9 5.6zm209.4-16q-6.3-4.3-15-7.9-8.5-3.6-15.7-5.6-7.7-2.6-11.6-0.9-3.6 1.7-5.6 9.1-4.1 15.5-8.7 35.1-4.5 19.5-8.9 39.6-4.3 20-8 39.1-3.3 18.8-5.3 32.8-1.2 7 0.5 10.6 1.9 3.4 7.5 6.3 5.3 2.7 10.9 4.6 5.8 1.7 12.5 2.9 5.6 1.5 8 0.3 2.6-1.3 3.9-6.3 3.6-14.5 8.2-31.2 4.8-16.9 10.4-35 5.7-18.1 11.8-36.7 6.3-18.6 12.5-36.7 2.2-6.5 0.5-10.9-1.4-4.6-7.9-9.2zm-90.6 193.2q-0.5 11.6 7.5 17.9 8 6.3 19.3 6.1 5.3 0 9.4-1.7 4.4-2 7.3-4.4 3.1-2.6 5-5.5 2.2-3.2 2.9-5.4 1-2.9 0.8-6.7 0-3.9-2-7.7-1.9-3.9-6-7-4.1-3.4-10.6-5.1-7.8-2.2-14-1.2-6.1 0.7-10.4 3.8-4.4 2.9-6.8 7.5-2.2 4.4-2.4 9.4zm187.2-193.2q-6.3-4.3-15-7.9-8.5-3.6-15.7-5.6-7.7-2.6-11.6-0.9-3.6 1.7-5.6 9.1-4.1 15.5-8.7 35.1-4.5 19.5-8.9 39.6-4.3 20-8 39.1-3.3 18.8-5.3 32.8-1.2 7 0.5 10.6 1.9 3.4 7.5 6.3 5.3 2.7 10.9 4.6 5.8 1.7 12.5 2.9 5.6 1.5 8 0.3 2.6-1.3 3.9-6.3 3.6-14.5 8.2-31.2 4.8-16.9 10.3-35 5.8-18.1 11.9-36.7 6.3-18.6 12.5-36.7 2.2-6.5 0.5-10.9-1.4-4.6-7.9-9.2zm-90.6 193.2q-0.5 11.6 7.5 17.9 7.9 6.3 19.3 6.1 5.3 0 9.4-1.7 4.4-2 7.3-4.4 3.1-2.6 5-5.5 2.2-3.2 2.9-5.4 1-2.9 0.8-6.7 0-3.9-2-7.7-1.9-3.9-6-7-4.1-3.4-10.6-5.1-7.8-2.2-14-1.2-6.1 0.7-10.4 3.8-4.4 2.9-6.8 7.5-2.2 4.4-2.4 9.4z"/><path class="b" d="m404.5 418.5q7.5-0.5 8.7-2.4 1.5-2.2 0-7.8-1.7-6.3-4.8-12.8-3.2-6.5-8-12-2.4-3.2-5.8-4.4-3.1-1.4-10.6-1.4-14.3 0.4-32.4 1.9-17.8 1.2-36.7 3.1-18.6 2-36.7 4.4-17.9 2.4-32.1 5.3-4.6 1.2-6 3.1-1.5 1.7 1.4 7.3 2.7 5.3 6.8 13 4.3 7.7 9.4 12.8 4.8 5.1 8.7 6.3 3.8 1 9.9-0.5 4.3-1.2 10.9-1.9 6.5-1 13.5-2.2-3.6 16.4-7.3 35.7-3.6 19.1-6.7 38-2.9 18.8-5.1 35.7-2.2 16.9-2.9 28.5-1 4.6 0.2 8 1.2 3.1 3.9 5.5 2.9 2.4 7 4.1 4.1 1.7 9.2 3.2 5.1 1.4 9.2 2.6 4.1 1.2 7.2 1.5 3.1 0 4.8-1 2-1.2 2.5-4.6 3.3-17.6 7.7-37.9 4.6-20.3 9.6-41.5 5.1-21.5 10.4-43.3 5.6-21.7 10.6-42 11.9-1.2 23-2.2 11.1-1.2 20.5-2.1zm106 123.9q0.8 9.9 1.5 18.3 0.7 8.2 1.7 15.2 0.9 6.8 3.1 9.4 2.4 2.7 8.2 4.4 5.6 1.9 10.9 2.4 5.3 0.2 11.6 0.2 6.3 0 8-1.6 1.9-1.7 1.9-6.1-0.3-20.7-0.3-44.9 0.3-24.4 0.8-48.5 0.5-24.2 1.4-46.4 1-22.2 2.4-39.4 0.8-7-1.4-11.3-1.9-4.4-9.4-7-5.6-1.5-11.1-3.2-5.4-1.7-11.9-3.1-6.3-1.5-14-2.4-7.7-1.2-17.6-1.7-11.4-1-17.2 3.1-5.8 4.1-9.4 10.7-10.1 18.1-21.5 41.5-11.1 23.2-21.9 47.1-10.7 23.9-20.1 46.4-9.2 22.4-15 39.1-1.4 5-1.4 8.2 0.2 2.9 1.4 4.8 1.2 1.9 3.4 3.4 2.2 1.2 5.1 3.1 3.9 2 7.5 3.7 3.8 1.4 7 2.6 5.5 1.9 8.2 1.2 2.9-0.7 4.8-4.8 3.4-7.7 7-15.7 3.6-8.2 8.5-17.6 13.7-3.7 31.6-6.1 18.1-2.6 36.2-5zm-46.1-33.9q11.4-22.9 22.5-44.1 11.3-21.5 21-39.2-0.5 19.4-0.3 39.2 0.3 19.5 0.8 39.3-11.1 0.7-22.3 2-10.8 1.2-21.7 2.8zm163.5 27.6q14.5-3.9 29.2-9.2 15-5.6 28.5-12.3 13.5-6.8 24.9-14.5 11.6-7.7 19.8-15.9 5.1-5.1 9.2-10.4 4.3-5.3 7-11.1 2.9-5.8 3.6-12.4 1-6.5-0.7-14-3.9-15.2-10.9-25.6-6.8-10.6-15-19.8-7-6.7-16.6-9.4-9.4-2.9-20.6-2.6-11.1 0.2-23.1 3.1-11.9 2.7-23.7 7-11.8 4.1-22.9 9.4-11.2 5.1-20.3 9.9-2.5 1.2-4.4 12.1-1.7 10.6-3.1 26.6-1.5 15.9-2.9 34.7-1.5 18.9-2.9 36.5-1.5 17.4-3.4 31.2-1.7 13.7-3.9 19.5-1.4 6.3 0.8 10.2 2.4 3.8 7 6.5 4.6 2.4 10.3 4.1 6.1 1.4 12.4 3.1 6.2 1.2 8.4 0 2.2-1.2 3.4-5 1.9-12.4 4.3-25.2 2.7-12.8 5.6-26.5zm10.4-45.4q3.6-15.2 7-29.2 3.6-14 7.5-27.1 8.9-3.9 17.4-5.8 8.7-1.9 15.4-2.2 7-0.2 11.4 1.5 4.6 1.4 5.3 4.3 1.9 5.3-1.5 13.1-3.3 7.7-11.6 16.2-8.2 8.2-21 16.1-12.8 7.8-29.9 13.1z"/></svg>